<svg width="72" height="74" viewBox="0 0 72 74" fill="none" xmlns="http://www.w3.org/2000/svg">
<g filter="url(#filter0_ddd_2863_1835)">
<path d="M37 8C25.9429 8 17 16.9205 17 27.95C17 42.9125 37 65 37 65C37 65 57 42.9125 57 27.95C57 16.9205 48.0571 8 37 8ZM37 35.075C33.0571 35.075 29.8571 31.883 29.8571 27.95C29.8571 24.017 33.0571 20.825 37 20.825C40.9429 20.825 44.1429 24.017 44.1429 27.95C44.1429 31.883 40.9429 35.075 37 35.075Z" fill="#3677FF"/>
</g>
<rect x="22" y="13" width="30" height="30" rx="15" fill="white"/>
<path d="M30 38.25C28.6167 38.25 27.4375 37.7625 26.4625 36.7875C25.4875 35.8125 25 34.6333 25 33.25C25 31.8667 25.4875 30.6875 26.4625 29.7125C27.4375 28.7375 28.6167 28.25 30 28.25C31.3833 28.25 32.5625 28.7375 33.5375 29.7125C34.5125 30.6875 35 31.8667 35 33.25C35 34.6333 34.5125 35.8125 33.5375 36.7875C32.5625 37.7625 31.3833 38.25 30 38.25ZM30 36.25C30.8333 36.25 31.5417 35.9583 32.125 35.375C32.7083 34.7917 33 34.0833 33 33.25C33 32.4167 32.7083 31.7083 32.125 31.125C31.5417 30.5417 30.8333 30.25 30 30.25C29.1667 30.25 28.4583 30.5417 27.875 31.125C27.2917 31.7083 27 32.4167 27 33.25C27 34.0833 27.2917 34.7917 27.875 35.375C28.4583 35.9583 29.1667 36.25 30 36.25ZM36 35.25V30.25L32.8 27.45C32.6 27.2667 32.45 27.0542 32.35 26.8125C32.25 26.5708 32.2 26.3167 32.2 26.05C32.2 25.7833 32.2542 25.5292 32.3625 25.2875C32.4708 25.0458 32.6167 24.8333 32.8 24.65L35.6 21.85C35.8 21.65 36.0292 21.5 36.2875 21.4C36.5458 21.3 36.8167 21.25 37.1 21.25C37.3833 21.25 37.6542 21.3 37.9125 21.4C38.1708 21.5 38.4 21.65 38.6 21.85L40.5 23.75C40.9667 24.2167 41.5 24.5833 42.1 24.85C42.7 25.1167 43.3333 25.25 44 25.25V27.25C43.05 27.25 42.1458 27.0667 41.2875 26.7C40.4292 26.3333 39.6667 25.8167 39 25.15L38.2 24.35L35.8 26.75L38 29.05V35.25H36ZM40.5 21.75C39.95 21.75 39.4792 21.5542 39.0875 21.1625C38.6958 20.7708 38.5 20.3 38.5 19.75C38.5 19.2 38.6958 18.7292 39.0875 18.3375C39.4792 17.9458 39.95 17.75 40.5 17.75C41.05 17.75 41.5208 17.9458 41.9125 18.3375C42.3042 18.7292 42.5 19.2 42.5 19.75C42.5 20.3 42.3042 20.7708 41.9125 21.1625C41.5208 21.5542 41.05 21.75 40.5 21.75ZM44 38.25C42.6167 38.25 41.4375 37.7625 40.4625 36.7875C39.4875 35.8125 39 34.6333 39 33.25C39 31.8667 39.4875 30.6875 40.4625 29.7125C41.4375 28.7375 42.6167 28.25 44 28.25C45.3833 28.25 46.5625 28.7375 47.5375 29.7125C48.5125 30.6875 49 31.8667 49 33.25C49 34.6333 48.5125 35.8125 47.5375 36.7875C46.5625 37.7625 45.3833 38.25 44 38.25ZM44 36.25C44.8333 36.25 45.5417 35.9583 46.125 35.375C46.7083 34.7917 47 34.0833 47 33.25C47 32.4167 46.7083 31.7083 46.125 31.125C45.5417 30.5417 44.8333 30.25 44 30.25C43.1667 30.25 42.4583 30.5417 41.875 31.125C41.2917 31.7083 41 32.4167 41 33.25C41 34.0833 41.2917 34.7917 41.875 35.375C42.4583 35.9583 43.1667 36.25 44 36.25Z" fill="#3677FF"/>
<defs>
<filter id="filter0_ddd_2863_1835" x="12" y="4" width="50" height="69" filterUnits="userSpaceOnUse" color-interpolation-filters="sRGB">
<feFlood flood-opacity="0" result="BackgroundImageFix"/>
<feColorMatrix in="SourceAlpha" type="matrix" values="0 0 0 0 0 0 0 0 0 0 0 0 0 0 0 0 0 0 127 0" result="hardAlpha"/>
<feOffset dy="3"/>
<feGaussianBlur stdDeviation="2.5"/>
<feComposite in2="hardAlpha" operator="out"/>
<feColorMatrix type="matrix" values="0 0 0 0 0 0 0 0 0 0 0 0 0 0 0 0 0 0 0.2 0"/>
<feBlend mode="normal" in2="BackgroundImageFix" result="effect1_dropShadow_2863_1835"/>
<feColorMatrix in="SourceAlpha" type="matrix" values="0 0 0 0 0 0 0 0 0 0 0 0 0 0 0 0 0 0 127 0" result="hardAlpha"/>
<feOffset dy="2"/>
<feGaussianBlur stdDeviation="1"/>
<feComposite in2="hardAlpha" operator="out"/>
<feColorMatrix type="matrix" values="0 0 0 0 0 0 0 0 0 0 0 0 0 0 0 0 0 0 0.14 0"/>
<feBlend mode="normal" in2="effect1_dropShadow_2863_1835" result="effect2_dropShadow_2863_1835"/>
<feColorMatrix in="SourceAlpha" type="matrix" values="0 0 0 0 0 0 0 0 0 0 0 0 0 0 0 0 0 0 127 0" result="hardAlpha"/>
<feOffset dy="1"/>
<feGaussianBlur stdDeviation="2.5"/>
<feComposite in2="hardAlpha" operator="out"/>
<feColorMatrix type="matrix" values="0 0 0 0 0 0 0 0 0 0 0 0 0 0 0 0 0 0 0.12 0"/>
<feBlend mode="normal" in2="effect2_dropShadow_2863_1835" result="effect3_dropShadow_2863_1835"/>
<feBlend mode="normal" in="SourceGraphic" in2="effect3_dropShadow_2863_1835" result="shape"/>
</filter>
</defs>
</svg>
