<svg width="24" height="24" viewBox="0 0 24 24" fill="none" xmlns="http://www.w3.org/2000/svg">
<mask id="mask0_17_5770" style="mask-type:alpha" maskUnits="userSpaceOnUse" x="0" y="0" width="24" height="24">
<rect width="24" height="24" fill="#D9D9D9"/>
</mask>
<g mask="url(#mask0_17_5770)">
<path d="M18.7749 22.5C18.6249 22.5 18.4707 22.4917 18.3124 22.475C18.1541 22.4583 17.9999 22.4333 17.8499 22.4L5.2249 19.7C4.49157 19.55 3.85407 19.2542 3.3124 18.8125C2.77074 18.3708 2.35824 17.8333 2.0749 17.2C2.04157 17.1333 2.0249 16.9833 2.0249 16.75C2.0749 16.55 2.18324 16.3917 2.3499 16.275C2.51657 16.1583 2.70824 16.1167 2.9249 16.15C3.04157 16.1833 3.14157 16.2375 3.2249 16.3125C3.30824 16.3875 3.3749 16.475 3.4249 16.575C3.6249 16.9917 3.90407 17.35 4.2624 17.65C4.62074 17.95 5.04157 18.15 5.5249 18.25L5.9999 18.35L9.4999 16L8.6999 12.5C8.63324 12.25 8.6249 11.9958 8.6749 11.7375C8.7249 11.4792 8.81657 11.2333 8.9499 11L11.4499 7H9.0999L7.1999 10.05L5.4999 9L7.9999 5H13.6999C14.1499 5 14.5124 5.125 14.7874 5.375C15.0624 5.625 15.2499 5.85833 15.3499 6.075L15.8749 7.275C16.2082 8.075 16.7457 8.72917 17.4874 9.2375C18.2291 9.74583 19.0666 10 19.9999 10V12C18.8332 12 17.7666 11.7208 16.7999 11.1625C15.8332 10.6042 15.0582 9.86667 14.4749 8.95L12.6749 11.825L15.9999 14.5L16.9999 20.7L18.1499 20.925C18.2499 20.9583 18.3541 20.9792 18.4624 20.9875C18.5707 20.9958 18.6749 21 18.7749 21C19.1749 21 19.5332 20.9333 19.8499 20.8C20.1666 20.6667 20.4666 20.4833 20.7499 20.25C20.8332 20.1667 21.0499 20.1167 21.3999 20.1C21.6166 20.1333 21.7791 20.2417 21.8874 20.425C21.9957 20.6083 22.0332 20.7917 21.9999 20.975C21.9832 21.0583 21.9541 21.1333 21.9124 21.2C21.8707 21.2667 21.8166 21.3333 21.7499 21.4C21.3332 21.7667 20.8666 22.0417 20.3499 22.225C19.8332 22.4083 19.3082 22.5 18.7749 22.5ZM14.8999 20.25L14.1499 15.6L11.2999 13.575L11.7499 16.9L8.7249 18.925L14.8999 20.25ZM15.9999 5C15.4499 5 14.9791 4.80417 14.5874 4.4125C14.1957 4.02083 13.9999 3.55 13.9999 3C13.9999 2.45 14.1957 1.97917 14.5874 1.5875C14.9791 1.19583 15.4499 1 15.9999 1C16.5499 1 17.0207 1.19583 17.4124 1.5875C17.8041 1.97917 17.9999 2.45 17.9999 3C17.9999 3.55 17.8041 4.02083 17.4124 4.4125C17.0207 4.80417 16.5499 5 15.9999 5Z" fill="#3677FF"/>
</g>
</svg>
